<?xml version="1.0" encoding="UTF-8"?>
<svg id="Camada_1" xmlns="http://www.w3.org/2000/svg" version="1.1" viewBox="0 0 841.89 595.28">
  <!-- Generator: Adobe Illustrator 29.5.0, SVG Export Plug-In . SVG Version: 2.1.0 Build 137)  -->
  <defs>
    <style>
      .st0 {
        fill: #5e1716;
      }

      .st1 {
        fill: #8ed06c;
      }

      .st2 {
        fill: #fff;
      }

      .st3 {
        fill: #cd1c1d;
      }

      .st4 {
        fill: #9f2424;
      }

      .st5, .st6 {
        stroke: #fff;
      }

      .st5, .st6, .st7, .st8 {
        fill: none;
        stroke-miterlimit: 10;
      }

      .st5, .st7, .st8 {
        stroke-width: 3px;
      }

      .st6 {
        stroke-width: 2px;
      }

      .st7 {
        stroke: #1d1d1b;
      }

      .st9 {
        fill: #1d1d1b;
      }

      .st8 {
        stroke: #000;
      }

      .st10 {
        fill: #115f32;
      }

      .st11 {
        fill: #4eba16;
      }
    </style>
  </defs>
  <path class="st8" d="M168.02-3462.03l51.85,51.85h0c14.32-14.32,14.32-37.53,0-51.85h0c-14.32-14.32-37.53-14.32-51.85,0h0Z"/>
  <path class="st8" d="M237.15-3323.77l-51.85-51.85h0c-14.32,14.32-14.32,37.53,0,51.85h0c14.32,14.32,37.53,14.32,51.85,0h0Z"/>
  <path class="st8" d="M168.02-3392.9l69.13,69.13c19.09-19.09,19.09-50.04,0-69.13l-69.13-69.13c-19.09,19.09-19.09,50.04,0,69.13Z"/>
  <g>
    <path d="M285.68-3368.28c1.86,7.13,6.91,11.41,15.57,11.41,9.76,0,13.71-4.5,13.71-10.64s-2.63-9.32-14.92-12.28c-14.14-3.4-17.66-7.68-17.66-14.91s5.7-14.59,18.1-14.59,18.31,7.57,19.19,15.35h-5.48c-.99-4.61-4.6-10.31-13.93-10.31s-12.28,4.72-12.28,9.1c0,5.04,2.63,7.57,13.49,10.2,15.46,3.73,19.3,8.77,19.3,17,0,9.98-8.12,16.12-19.63,16.12-12.5,0-19.52-6.58-21.06-16.45h5.6Z"/>
    <path d="M334.36-3433.97h5.48v10.64h-5.48v-10.64ZM334.36-3407.98h5.48v54.83h-5.48v-54.83Z"/>
    <path d="M357.83-3393.83c0-4.72,0-9.87-.11-14.15h5.37c.11,1.87.33,6.58.22,9.76,2.3-5.48,7.35-11.08,16.45-11.08,7.67,0,13.71,3.84,15.9,10.86,2.74-5.7,8.22-10.86,17.88-10.86,8.44,0,17.22,4.83,17.22,20.07v36.08h-5.48v-35.42c0-7.35-2.63-15.35-12.83-15.35s-15.46,8.55-15.46,19.19v31.58h-5.38v-35.31c0-8.01-2.41-15.46-12.5-15.46-10.64,0-15.79,9.43-15.79,20.62v30.16h-5.48v-40.69Z"/>
    <path d="M448.74-3433.97h5.48v35.2c2.63-5.48,8-10.53,18.75-10.53,12.94,0,22.48,10.64,22.48,27.53s-8.55,29.94-23.91,29.94c-9.21,0-14.48-3.73-17.33-9.98,0,3.51-.11,7.13-.22,8.66h-5.37c.11-6.25.11-12.5.11-18.75v-62.07ZM489.65-3381.66c0-13.71-6.8-22.48-17.21-22.48-13.71,0-18.54,9.32-18.54,23.69,0,12.94,4.27,23.47,17.88,23.47,11.07,0,17.88-9.21,17.88-24.68Z"/>
    <path d="M509.49-3433.97h5.48v10.64h-5.48v-10.64ZM509.49-3407.98h5.48v54.83h-5.48v-54.83Z"/>
    <path d="M577.37-3380.67c0,15.24-8.45,28.84-24.79,28.84-14.81,0-24.01-12.17-24.01-28.73,0-15.68,8.66-28.73,24.56-28.73,14.59,0,24.24,11.41,24.24,28.62ZM534.38-3380.56c0,13.05,7.02,23.58,18.64,23.58s18.54-9.76,18.54-23.58c0-12.94-6.58-23.58-18.75-23.58s-18.42,10.42-18.42,23.58Z"/>
    <path d="M592.06-3368.28c1.86,7.13,6.91,11.41,15.57,11.41,9.76,0,13.71-4.5,13.71-10.64s-2.63-9.32-14.92-12.28c-14.14-3.4-17.66-7.68-17.66-14.91s5.7-14.59,18.1-14.59,18.31,7.57,19.19,15.35h-5.48c-.99-4.61-4.6-10.31-13.93-10.31s-12.28,4.72-12.28,9.1c0,5.04,2.63,7.57,13.49,10.2,15.46,3.73,19.3,8.77,19.3,17,0,9.98-8.12,16.12-19.63,16.12-12.5,0-19.52-6.58-21.06-16.45h5.6Z"/>
    <path d="M641.96-3379.9c.11,14.15,7.24,22.92,17.76,22.92s13.82-5.81,15.79-10.31h5.6c-2.3,7.24-8.12,15.46-21.61,15.46-16.67,0-23.14-14.37-23.14-28.29,0-15.68,7.79-29.17,23.8-29.17,16.89,0,22.27,14.59,22.27,24.89,0,1.54,0,3.07-.11,4.5h-40.36ZM676.72-3384.73c-.11-10.86-6.03-19.41-16.78-19.41-11.29,0-16.45,7.9-17.66,19.41h34.44Z"/>
  </g>
  <g>
    <path class="st4" d="M1158.83-3360.18c1.75,6.69,6.48,10.7,14.61,10.7,9.16,0,12.86-4.22,12.86-9.98s-2.47-8.75-13.99-11.52c-13.27-3.19-16.56-7.2-16.56-13.99s5.35-13.68,16.98-13.68,17.18,7.1,18,14.4h-5.14c-.93-4.32-4.32-9.67-13.06-9.67s-11.52,4.42-11.52,8.54c0,4.73,2.47,7.1,12.65,9.57,14.5,3.5,18.11,8.23,18.11,15.95,0,9.36-7.61,15.12-18.42,15.12-11.73,0-18.31-6.17-19.75-15.43h5.25Z"/>
    <path class="st4" d="M1204.51-3421.81h5.14v9.98h-5.14v-9.98ZM1204.51-3397.43h5.14v51.44h-5.14v-51.44Z"/>
    <path class="st4" d="M1226.52-3384.15c0-4.42,0-9.26-.1-13.27h5.04c.1,1.75.31,6.17.21,9.16,2.16-5.14,6.89-10.39,15.43-10.39,7.2,0,12.86,3.6,14.92,10.18,2.57-5.35,7.72-10.18,16.77-10.18,7.92,0,16.15,4.53,16.15,18.83v33.85h-5.14v-33.23c0-6.89-2.47-14.4-12.04-14.4s-14.5,8.02-14.5,18v29.63h-5.04v-33.13c0-7.51-2.26-14.51-11.73-14.51-9.98,0-14.81,8.85-14.81,19.34v28.29h-5.14v-38.17Z"/>
    <path class="st4" d="M1311.81-3421.81h5.14v33.03c2.47-5.14,7.51-9.88,17.59-9.88,12.14,0,21.09,9.98,21.09,25.82s-8.02,28.09-22.43,28.09c-8.64,0-13.58-3.5-16.25-9.36,0,3.29-.1,6.69-.21,8.13h-5.04c.1-5.86.1-11.73.1-17.59v-58.23ZM1350.19-3372.73c0-12.86-6.38-21.09-16.15-21.09-12.86,0-17.39,8.75-17.39,22.22,0,12.14,4.01,22.02,16.77,22.02,10.39,0,16.77-8.64,16.77-23.15Z"/>
    <path class="st4" d="M1368.81-3421.81h5.14v9.98h-5.14v-9.98ZM1368.81-3397.43h5.14v51.44h-5.14v-51.44Z"/>
    <path class="st4" d="M1432.49-3371.81c0,14.3-7.92,27.06-23.25,27.06-13.89,0-22.53-11.42-22.53-26.96,0-14.71,8.13-26.96,23.04-26.96,13.68,0,22.74,10.7,22.74,26.85ZM1392.16-3371.7c0,12.24,6.58,22.12,17.49,22.12s17.39-9.16,17.39-22.12c0-12.14-6.17-22.12-17.59-22.12s-17.28,9.77-17.28,22.12Z"/>
    <path class="st4" d="M1446.27-3360.18c1.75,6.69,6.48,10.7,14.61,10.7,9.16,0,12.86-4.22,12.86-9.98s-2.47-8.75-13.99-11.52c-13.27-3.19-16.56-7.2-16.56-13.99s5.35-13.68,16.98-13.68,17.18,7.1,18,14.4h-5.14c-.93-4.32-4.32-9.67-13.06-9.67s-11.52,4.42-11.52,8.54c0,4.73,2.47,7.1,12.65,9.57,14.5,3.5,18.11,8.23,18.11,15.95,0,9.36-7.61,15.12-18.42,15.12-11.73,0-18.31-6.17-19.75-15.43h5.25Z"/>
    <path class="st4" d="M1493.08-3371.09c.1,13.27,6.79,21.5,16.67,21.5s12.96-5.45,14.81-9.67h5.25c-2.16,6.79-7.61,14.51-20.27,14.51-15.64,0-21.71-13.48-21.71-26.54,0-14.71,7.3-27.37,22.32-27.37,15.85,0,20.89,13.68,20.89,23.35,0,1.44,0,2.88-.1,4.22h-37.86ZM1525.69-3375.61c-.1-10.18-5.66-18.21-15.74-18.21-10.6,0-15.43,7.41-16.56,18.21h32.31Z"/>
  </g>
  <path class="st4" d="M1053.18-3443.95l51.25,51.25h0c14.15-14.15,14.15-37.1,0-51.25h0c-14.15-14.15-37.1-14.15-51.25,0h0Z"/>
  <path class="st4" d="M1121.51-3307.28l-51.25-51.25h0c-14.15,14.15-14.15,37.1,0,51.25h0c14.15,14.15,37.1,14.15,51.25,0h0Z"/>
  <path class="st3" d="M1053.18-3375.61l68.34,68.34c18.87-18.87,18.87-49.47,0-68.34l-68.34-68.34c-18.87,18.87-18.87,49.47,0,68.34Z"/>
  <g>
    <path class="st4" d="M257.37-2617.57c1.56,5.96,5.78,9.54,13.02,9.54,8.16,0,11.46-3.76,11.46-8.9s-2.2-7.8-12.48-10.27c-11.83-2.84-14.77-6.42-14.77-12.47s4.77-12.2,15.14-12.2,15.32,6.33,16.05,12.84h-4.59c-.82-3.85-3.85-8.62-11.65-8.62s-10.27,3.94-10.27,7.61c0,4.22,2.2,6.33,11.28,8.53,12.93,3.12,16.14,7.34,16.14,14.22,0,8.35-6.79,13.48-16.42,13.48-10.46,0-16.33-5.5-17.61-13.76h4.68Z"/>
    <path class="st4" d="M298.09-2672.52h4.59v8.9h-4.59v-8.9ZM298.09-2650.78h4.59v45.86h-4.59v-45.86Z"/>
    <path class="st4" d="M317.72-2638.94c0-3.94,0-8.26-.09-11.83h4.49c.09,1.56.28,5.5.18,8.16,1.93-4.59,6.15-9.26,13.76-9.26,6.42,0,11.46,3.21,13.3,9.08,2.29-4.77,6.88-9.08,14.95-9.08,7.06,0,14.4,4.04,14.4,16.79v30.18h-4.59v-29.63c0-6.15-2.2-12.84-10.73-12.84s-12.93,7.15-12.93,16.05v26.42h-4.5v-29.53c0-6.7-2.02-12.93-10.46-12.93-8.9,0-13.21,7.89-13.21,17.24v25.22h-4.59v-34.03Z"/>
    <path class="st4" d="M393.75-2672.52h4.59v29.44c2.2-4.59,6.7-8.81,15.68-8.81,10.83,0,18.81,8.9,18.81,23.02s-7.15,25.04-20,25.04c-7.71,0-12.11-3.12-14.49-8.35,0,2.94-.09,5.96-.19,7.25h-4.49c.09-5.23.09-10.46.09-15.69v-51.92ZM427.96-2628.76c0-11.46-5.69-18.8-14.4-18.8-11.47,0-15.5,7.8-15.5,19.81,0,10.82,3.58,19.63,14.95,19.63,9.26,0,14.95-7.71,14.95-20.64Z"/>
    <path class="st4" d="M444.56-2672.52h4.59v8.9h-4.59v-8.9ZM444.56-2650.78h4.59v45.86h-4.59v-45.86Z"/>
    <path class="st4" d="M501.34-2627.94c0,12.75-7.06,24.12-20.73,24.12-12.38,0-20.09-10.18-20.09-24.03,0-13.12,7.24-24.03,20.54-24.03,12.2,0,20.27,9.54,20.27,23.94ZM465.38-2627.85c0,10.92,5.87,19.72,15.59,19.72s15.5-8.16,15.5-19.72c0-10.82-5.5-19.72-15.69-19.72s-15.41,8.71-15.41,19.72Z"/>
    <path class="st4" d="M513.62-2617.57c1.56,5.96,5.78,9.54,13.02,9.54,8.16,0,11.46-3.76,11.46-8.9s-2.2-7.8-12.48-10.27c-11.83-2.84-14.77-6.42-14.77-12.47s4.77-12.2,15.14-12.2,15.32,6.33,16.05,12.84h-4.59c-.82-3.85-3.85-8.62-11.65-8.62s-10.27,3.94-10.27,7.61c0,4.22,2.2,6.33,11.28,8.53,12.93,3.12,16.14,7.34,16.14,14.22,0,8.35-6.79,13.48-16.42,13.48-10.46,0-16.33-5.5-17.61-13.76h4.68Z"/>
    <path class="st4" d="M555.35-2627.3c.09,11.83,6.05,19.17,14.86,19.17s11.56-4.86,13.21-8.62h4.68c-1.93,6.05-6.79,12.93-18.07,12.93-13.94,0-19.35-12.02-19.35-23.66,0-13.12,6.51-24.4,19.9-24.4,14.13,0,18.62,12.2,18.62,20.82,0,1.29,0,2.57-.09,3.76h-33.75ZM584.43-2631.33c-.09-9.08-5.05-16.24-14.04-16.24-9.45,0-13.76,6.61-14.77,16.24h28.8Z"/>
  </g>
  <path class="st4" d="M344.6-2901.53l74.01,74.01h0c20.44-20.44,20.44-53.57,0-74.01h0c-20.44-20.44-53.57-20.44-74.01,0h0Z"/>
  <path class="st4" d="M443.28-2704.18l-74.01-74.01h0c-20.44,20.44-20.44,53.57,0,74.01h0c20.44,20.44,53.57,20.44,74.01,0h0Z"/>
  <path class="st3" d="M344.6-2802.86l98.68,98.68c27.25-27.25,27.25-71.43,0-98.68l-98.68-98.68c-27.25,27.25-27.25,71.43,0,98.68Z"/>
  <path class="st4" d="M1222.32-2900.18l90.77,90.77h0c25.06-25.06,25.06-65.7,0-90.77h0c-25.06-25.06-65.7-25.06-90.77,0h0Z"/>
  <path class="st4" d="M1343.35-2658.13l-90.77-90.77h0c-25.06,25.06-25.06,65.7,0,90.77h0c25.06,25.06,65.7,25.06,90.77,0h0Z"/>
  <path class="st3" d="M1222.32-2779.16l121.02,121.02c33.42-33.42,33.42-87.6,0-121.02l-121.02-121.02c-33.42,33.42-33.42,87.6,0,121.02Z"/>
  <path class="st11" d="M367.68-1643.97l79.89,79.89h0c22.06-22.06,22.06-57.83,0-79.89h0c-22.06-22.06-57.83-22.06-79.89,0h0Z"/>
  <path class="st11" d="M474.21-1430.93l-79.89-79.89h0c-22.06,22.06-22.06,57.83,0,79.89h0c22.06,22.06,57.83,22.06,79.89,0h0Z"/>
  <path class="st10" d="M367.68-1537.45l106.52,106.52c29.41-29.41,29.41-77.11,0-106.52l-106.52-106.52c-29.41,29.42-29.41,77.11,0,106.52Z"/>
  <g>
    <path class="st10" d="M297.03-2119.79c1.86,7.11,6.89,11.37,15.53,11.37,9.73,0,13.67-4.48,13.67-10.61s-2.63-9.3-14.87-12.25c-14.1-3.39-17.61-7.65-17.61-14.87s5.69-14.54,18.05-14.54,18.26,7.55,19.14,15.31h-5.47c-.98-4.59-4.59-10.28-13.89-10.28s-12.25,4.7-12.25,9.08c0,5.03,2.63,7.55,13.45,10.17,15.42,3.72,19.25,8.75,19.25,16.95,0,9.95-8.09,16.08-19.58,16.08-12.47,0-19.47-6.56-21-16.4h5.58Z"/>
    <path class="st10" d="M345.58-2185.29h5.47v10.61h-5.47v-10.61ZM345.58-2159.37h5.47v54.68h-5.47v-54.68Z"/>
    <path class="st10" d="M368.97-2145.27c0-4.7,0-9.84-.11-14.11h5.36c.11,1.86.33,6.56.22,9.73,2.3-5.47,7.33-11.05,16.4-11.05,7.65,0,13.67,3.83,15.86,10.83,2.73-5.69,8.2-10.83,17.82-10.83,8.42,0,17.17,4.81,17.17,20.01v35.98h-5.47v-35.32c0-7.33-2.63-15.31-12.8-15.31s-15.42,8.53-15.42,19.14v31.49h-5.36v-35.21c0-7.98-2.41-15.42-12.47-15.42-10.61,0-15.75,9.4-15.75,20.56v30.07h-5.47v-40.57Z"/>
    <path class="st10" d="M459.62-2185.29h5.47v35.1c2.62-5.47,7.98-10.5,18.7-10.5,12.91,0,22.42,10.61,22.42,27.45s-8.53,29.85-23.84,29.85c-9.19,0-14.43-3.72-17.28-9.95,0,3.5-.11,7.11-.22,8.64h-5.36c.11-6.23.11-12.47.11-18.7v-61.89ZM500.41-2133.13c0-13.67-6.78-22.42-17.17-22.42-13.67,0-18.48,9.3-18.48,23.62,0,12.91,4.26,23.4,17.82,23.4,11.04,0,17.82-9.19,17.82-24.61Z"/>
    <path class="st10" d="M520.2-2185.29h5.47v10.61h-5.47v-10.61ZM520.2-2159.37h5.47v54.68h-5.47v-54.68Z"/>
    <path class="st10" d="M587.89-2132.14c0,15.2-8.42,28.76-24.72,28.76-14.76,0-23.95-12.14-23.95-28.65,0-15.64,8.64-28.65,24.49-28.65,14.54,0,24.17,11.37,24.17,28.54ZM545.02-2132.03c0,13.01,7,23.51,18.59,23.51s18.48-9.73,18.48-23.51c0-12.9-6.56-23.51-18.7-23.51s-18.37,10.39-18.37,23.51Z"/>
    <path class="st10" d="M602.53-2119.79c1.86,7.11,6.89,11.37,15.53,11.37,9.73,0,13.67-4.48,13.67-10.61s-2.63-9.3-14.87-12.25c-14.1-3.39-17.61-7.65-17.61-14.87s5.69-14.54,18.05-14.54,18.26,7.55,19.14,15.31h-5.47c-.98-4.59-4.59-10.28-13.89-10.28s-12.25,4.7-12.25,9.08c0,5.03,2.63,7.55,13.45,10.17,15.42,3.72,19.25,8.75,19.25,16.95,0,9.95-8.09,16.08-19.58,16.08-12.47,0-19.47-6.56-21-16.4h5.58Z"/>
    <path class="st10" d="M652.28-2131.38c.11,14.11,7.22,22.86,17.71,22.86s13.78-5.8,15.75-10.28h5.58c-2.3,7.22-8.09,15.42-21.54,15.42-16.62,0-23.07-14.33-23.07-28.21,0-15.64,7.76-29.09,23.73-29.09,16.84,0,22.2,14.54,22.2,24.82,0,1.53,0,3.06-.11,4.48h-40.24ZM686.95-2136.19c-.11-10.83-6.02-19.36-16.73-19.36-11.26,0-16.4,7.88-17.61,19.36h34.34Z"/>
  </g>
  <path class="st11" d="M184.73-2208.82l54.47,54.47h0c15.04-15.04,15.04-39.43,0-54.47h0c-15.04-15.04-39.43-15.04-54.47,0h0Z"/>
  <path class="st11" d="M257.36-2063.56l-54.47-54.47h0c-15.04,15.04-15.04,39.43,0,54.47h0c15.04,15.04,39.43,15.04,54.47,0h0Z"/>
  <path class="st10" d="M184.73-2136.19l72.63,72.63c20.06-20.06,20.06-52.57,0-72.63l-72.63-72.63c-20.06,20.06-20.06,52.57,0,72.63Z"/>
  <g>
    <path class="st10" d="M1119.26-2012.78c1.56,5.96,5.78,9.54,13.02,9.54,8.16,0,11.46-3.76,11.46-8.9s-2.2-7.8-12.48-10.27c-11.83-2.84-14.77-6.42-14.77-12.47s4.77-12.2,15.14-12.2,15.32,6.33,16.05,12.84h-4.59c-.82-3.85-3.85-8.62-11.65-8.62s-10.27,3.94-10.27,7.61c0,4.22,2.2,6.33,11.28,8.53,12.93,3.12,16.14,7.34,16.14,14.22,0,8.35-6.79,13.48-16.42,13.48-10.46,0-16.33-5.5-17.61-13.76h4.68Z"/>
    <path class="st10" d="M1159.98-2067.72h4.59v8.9h-4.59v-8.9ZM1159.98-2045.99h4.59v45.86h-4.59v-45.86Z"/>
    <path class="st10" d="M1179.61-2034.15c0-3.94,0-8.26-.09-11.83h4.49c.09,1.56.28,5.5.18,8.16,1.93-4.59,6.15-9.26,13.76-9.26,6.42,0,11.46,3.21,13.3,9.08,2.29-4.77,6.88-9.08,14.95-9.08,7.06,0,14.4,4.04,14.4,16.79v30.18h-4.59v-29.63c0-6.15-2.2-12.84-10.73-12.84s-12.93,7.15-12.93,16.05v26.42h-4.5v-29.53c0-6.7-2.02-12.93-10.46-12.93-8.9,0-13.21,7.89-13.21,17.24v25.22h-4.59v-34.03Z"/>
    <path class="st10" d="M1255.64-2067.72h4.59v29.44c2.2-4.59,6.7-8.81,15.68-8.81,10.83,0,18.81,8.9,18.81,23.02s-7.15,25.04-20,25.04c-7.71,0-12.11-3.12-14.49-8.35,0,2.94-.09,5.96-.19,7.25h-4.49c.09-5.23.09-10.46.09-15.69v-51.92ZM1289.85-2023.97c0-11.46-5.69-18.8-14.4-18.8-11.47,0-15.5,7.8-15.5,19.81,0,10.82,3.58,19.63,14.95,19.63,9.26,0,14.95-7.71,14.95-20.64Z"/>
    <path class="st10" d="M1306.45-2067.72h4.59v8.9h-4.59v-8.9ZM1306.45-2045.99h4.59v45.86h-4.59v-45.86Z"/>
    <path class="st10" d="M1363.23-2023.15c0,12.75-7.06,24.12-20.73,24.12-12.38,0-20.09-10.18-20.09-24.03,0-13.12,7.24-24.03,20.54-24.03,12.2,0,20.27,9.54,20.27,23.94ZM1327.27-2023.05c0,10.92,5.87,19.72,15.59,19.72s15.5-8.16,15.5-19.72c0-10.82-5.5-19.72-15.69-19.72s-15.41,8.71-15.41,19.72Z"/>
    <path class="st10" d="M1375.51-2012.78c1.56,5.96,5.78,9.54,13.02,9.54,8.16,0,11.46-3.76,11.46-8.9s-2.2-7.8-12.48-10.27c-11.83-2.84-14.77-6.42-14.77-12.47s4.77-12.2,15.14-12.2,15.32,6.33,16.05,12.84h-4.59c-.82-3.85-3.85-8.62-11.65-8.62s-10.27,3.94-10.27,7.61c0,4.22,2.2,6.33,11.28,8.53,12.93,3.12,16.14,7.34,16.14,14.22,0,8.35-6.79,13.48-16.42,13.48-10.46,0-16.33-5.5-17.61-13.76h4.68Z"/>
    <path class="st10" d="M1417.24-2022.5c.09,11.83,6.05,19.17,14.86,19.17s11.56-4.86,13.21-8.62h4.68c-1.93,6.05-6.79,12.93-18.07,12.93-13.94,0-19.35-12.02-19.35-23.66,0-13.12,6.51-24.4,19.9-24.4,14.13,0,18.62,12.2,18.62,20.82,0,1.29,0,2.57-.09,3.76h-33.75ZM1446.32-2026.54c-.09-9.08-5.05-16.24-14.04-16.24-9.45,0-13.76,6.61-14.77,16.24h28.8Z"/>
  </g>
  <path class="st11" d="M1206.49-2296.74l74.01,74.01h0c20.44-20.44,20.44-53.57,0-74.01h0c-20.44-20.44-53.57-20.44-74.01,0h0Z"/>
  <path class="st11" d="M1305.17-2099.39l-74.01-74.01h0c-20.44,20.44-20.44,53.57,0,74.01h0c20.44,20.44,53.57,20.44,74.01,0h0Z"/>
  <path class="st10" d="M1206.49-2198.07l98.68,98.68c27.25-27.25,27.25-71.43,0-98.68l-98.68-98.68c-27.25,27.25-27.25,71.43,0,98.68Z"/>
  <rect class="st3" x="1146" y="-1674.29" width="273.68" height="273.68" rx="-563.47" ry="-563.47"/>
  <path class="st6" d="M1237.33-1628.47l68.26,68.26h0c18.85-18.85,18.85-49.41,0-68.26h0c-18.85-18.85-49.41-18.85-68.26,0h0Z"/>
  <path class="st6" d="M1328.34-1446.44l-68.26-68.26h0c-18.85,18.85-18.85,49.41,0,68.26h0c18.85,18.85,49.41,18.85,68.26,0h0Z"/>
  <path class="st6" d="M1237.33-1537.45l91.02,91.02c25.13-25.13,25.13-65.88,0-91.02l-91.02-91.02c-25.13,25.13-25.13,65.88,0,91.02Z"/>
  <rect class="st1" x="284.11" y="-1059.01" width="273.68" height="273.68" rx="-255.83" ry="-255.83"/>
  <path class="st6" d="M375.44-1013.19l68.26,68.26h0c18.85-18.85,18.85-49.41,0-68.26h0c-18.85-18.85-49.41-18.85-68.26,0h0Z"/>
  <path class="st6" d="M466.45-831.16l-68.26-68.26h0c-18.85,18.85-18.85,49.41,0,68.26h0c18.85,18.85,49.41,18.85,68.26,0h0Z"/>
  <path class="st6" d="M375.44-922.18l91.02,91.02c25.13-25.13,25.13-65.88,0-91.02l-91.02-91.02c-25.13,25.13-25.13,65.88,0,91.02Z"/>
  <rect x="1146" y="-1060.75" width="273.68" height="273.68" rx="-256.7" ry="-256.7"/>
  <path class="st6" d="M1237.33-1014.93l68.26,68.26h0c18.85-18.85,18.85-49.41,0-68.26h0c-18.85-18.85-49.41-18.85-68.26,0h0Z"/>
  <path class="st6" d="M1328.34-832.9l-68.26-68.26h0c-18.85,18.85-18.85,49.41,0,68.26h0c18.85,18.85,49.41,18.85,68.26,0h0Z"/>
  <path class="st6" d="M1237.33-923.91l91.02,91.02c25.13-25.13,25.13-65.88,0-91.02l-91.02-91.02c-25.13,25.13-25.13,65.88,0,91.02Z"/>
  <rect class="st0" x="292.33" y="-481.68" width="292.51" height="292.51" rx="35.43" ry="35.43"/>
  <path class="st4" d="M389.95-432.71l72.96,72.96h0c20.15-20.15,20.15-52.81,0-72.96h0c-20.15-20.15-52.81-20.15-72.96,0h0Z"/>
  <path class="st4" d="M487.23-238.15l-72.96-72.96h0c-20.15,20.15-20.15,52.81,0,72.96h0c20.15,20.15,52.81,20.15,72.96,0h0Z"/>
  <path class="st3" d="M389.95-335.43l97.28,97.28c26.86-26.86,26.86-70.42,0-97.28l-97.28-97.28c-26.86,26.86-26.86,70.42,0,97.28Z"/>
  <rect class="st1" x="1138.12" y="-496.52" width="316.44" height="316.44" rx="35.43" ry="35.43"/>
  <path class="st11" d="M1243.72-443.54l78.93,78.93h0c21.8-21.8,21.8-57.13,0-78.93h0c-21.8-21.8-57.13-21.8-78.93,0h0Z"/>
  <path class="st11" d="M1348.96-233.07l-78.93-78.93h0c-21.8,21.8-21.8,57.13,0,78.93h0c21.8,21.8,57.13,21.8,78.93,0h0Z"/>
  <path class="st10" d="M1243.72-338.31l105.24,105.24c29.06-29.06,29.06-76.18,0-105.24l-105.24-105.24c-29.06,29.06-29.06,76.18,0,105.24Z"/>
  <path class="st5" d="M175.94,228.51l51.85,51.85h0c14.32-14.32,14.32-37.53,0-51.85h0c-14.32-14.32-37.53-14.32-51.85,0h0Z"/>
  <path class="st5" d="M245.07,366.77l-51.85-51.85h0c-14.32,14.32-14.32,37.53,0,51.85h0c14.32,14.32,37.53,14.32,51.85,0h0Z"/>
  <path class="st5" d="M175.94,297.64l69.13,69.13c19.09-19.09,19.09-50.04,0-69.13l-69.13-69.13c-19.09,19.09-19.09,50.04,0,69.13Z"/>
  <g>
    <path class="st2" d="M293.6,322.26c1.86,7.13,6.91,11.41,15.57,11.41,9.76,0,13.71-4.5,13.71-10.64s-2.63-9.32-14.92-12.28c-14.14-3.4-17.66-7.68-17.66-14.91s5.7-14.59,18.1-14.59,18.31,7.57,19.19,15.35h-5.48c-.99-4.61-4.6-10.31-13.93-10.31s-12.28,4.72-12.28,9.1c0,5.04,2.63,7.57,13.49,10.2,15.46,3.73,19.3,8.77,19.3,17,0,9.98-8.12,16.12-19.63,16.12-12.5,0-19.52-6.58-21.06-16.45h5.6Z"/>
    <path class="st2" d="M342.29,256.57h5.48v10.64h-5.48v-10.64ZM342.29,282.56h5.48v54.83h-5.48v-54.83Z"/>
    <path class="st2" d="M365.75,296.71c0-4.72,0-9.87-.11-14.15h5.37c.11,1.87.33,6.58.22,9.76,2.3-5.48,7.35-11.08,16.45-11.08,7.67,0,13.71,3.84,15.9,10.86,2.74-5.7,8.22-10.86,17.88-10.86,8.44,0,17.22,4.83,17.22,20.07v36.08h-5.48v-35.42c0-7.35-2.63-15.35-12.83-15.35s-15.46,8.55-15.46,19.19v31.58h-5.38v-35.31c0-8.01-2.41-15.46-12.5-15.46-10.64,0-15.79,9.43-15.79,20.62v30.16h-5.48v-40.69Z"/>
    <path class="st2" d="M456.66,256.57h5.48v35.2c2.63-5.48,8-10.53,18.75-10.53,12.94,0,22.48,10.64,22.48,27.53s-8.55,29.94-23.91,29.94c-9.21,0-14.48-3.73-17.33-9.98,0,3.51-.11,7.13-.22,8.66h-5.37c.11-6.25.11-12.5.11-18.75v-62.07ZM497.57,308.88c0-13.71-6.8-22.48-17.21-22.48-13.71,0-18.54,9.32-18.54,23.69,0,12.94,4.27,23.47,17.88,23.47,11.07,0,17.88-9.21,17.88-24.68Z"/>
    <path class="st2" d="M517.42,256.57h5.48v10.64h-5.48v-10.64ZM517.42,282.56h5.48v54.83h-5.48v-54.83Z"/>
    <path class="st2" d="M585.3,309.87c0,15.24-8.45,28.84-24.79,28.84-14.81,0-24.01-12.17-24.01-28.73,0-15.68,8.66-28.73,24.56-28.73,14.59,0,24.24,11.41,24.24,28.62ZM542.31,309.98c0,13.05,7.02,23.58,18.64,23.58s18.54-9.76,18.54-23.58c0-12.94-6.58-23.58-18.75-23.58s-18.42,10.42-18.42,23.58Z"/>
    <path class="st2" d="M599.99,322.26c1.86,7.13,6.91,11.41,15.57,11.41,9.76,0,13.71-4.5,13.71-10.64s-2.63-9.32-14.92-12.28c-14.14-3.4-17.66-7.68-17.66-14.91s5.7-14.59,18.1-14.59,18.31,7.57,19.19,15.35h-5.48c-.99-4.61-4.6-10.31-13.93-10.31s-12.28,4.72-12.28,9.1c0,5.04,2.63,7.57,13.49,10.2,15.46,3.73,19.3,8.77,19.3,17,0,9.98-8.12,16.12-19.63,16.12-12.5,0-19.52-6.58-21.06-16.45h5.6Z"/>
    <path class="st2" d="M649.88,310.63c.11,14.15,7.24,22.92,17.76,22.92s13.82-5.81,15.79-10.31h5.6c-2.3,7.24-8.12,15.46-21.61,15.46-16.67,0-23.14-14.37-23.14-28.29,0-15.68,7.79-29.17,23.8-29.17,16.89,0,22.27,14.59,22.27,24.89,0,1.54,0,3.07-.11,4.5h-40.36ZM684.65,305.81c-.11-10.86-6.03-19.41-16.78-19.41-11.29,0-16.45,7.9-17.66,19.41h34.44Z"/>
  </g>
  <g>
    <path class="st2" d="M270.41,1097.51c1.56,5.96,5.78,9.54,13.02,9.54,8.16,0,11.46-3.76,11.46-8.9s-2.2-7.8-12.48-10.27c-11.83-2.84-14.77-6.42-14.77-12.47s4.77-12.2,15.14-12.2,15.32,6.33,16.05,12.84h-4.59c-.82-3.85-3.85-8.62-11.65-8.62s-10.27,3.94-10.27,7.61c0,4.22,2.2,6.33,11.28,8.53,12.93,3.12,16.14,7.34,16.14,14.22,0,8.35-6.79,13.48-16.42,13.48-10.46,0-16.33-5.5-17.61-13.76h4.68Z"/>
    <path class="st2" d="M311.13,1042.56h4.59v8.9h-4.59v-8.9ZM311.13,1064.3h4.59v45.86h-4.59v-45.86Z"/>
    <path class="st2" d="M330.76,1076.13c0-3.94,0-8.26-.09-11.83h4.49c.09,1.56.28,5.5.18,8.16,1.93-4.59,6.15-9.26,13.76-9.26,6.42,0,11.46,3.21,13.3,9.08,2.29-4.77,6.88-9.08,14.95-9.08,7.06,0,14.4,4.04,14.4,16.79v30.18h-4.59v-29.63c0-6.15-2.2-12.84-10.73-12.84s-12.93,7.15-12.93,16.05v26.42h-4.5v-29.53c0-6.7-2.02-12.93-10.46-12.93-8.9,0-13.21,7.89-13.21,17.24v25.22h-4.59v-34.03Z"/>
    <path class="st2" d="M406.79,1042.56h4.59v29.44c2.2-4.59,6.7-8.81,15.68-8.81,10.83,0,18.81,8.9,18.81,23.02s-7.15,25.04-20,25.04c-7.71,0-12.11-3.12-14.49-8.35,0,2.94-.09,5.96-.19,7.25h-4.49c.09-5.23.09-10.46.09-15.69v-51.92ZM441,1086.32c0-11.46-5.69-18.8-14.4-18.8-11.47,0-15.5,7.8-15.5,19.81,0,10.82,3.58,19.63,14.95,19.63,9.26,0,14.95-7.71,14.95-20.64Z"/>
    <path class="st2" d="M457.6,1042.56h4.59v8.9h-4.59v-8.9ZM457.6,1064.3h4.59v45.86h-4.59v-45.86Z"/>
    <path class="st2" d="M514.38,1087.14c0,12.75-7.06,24.12-20.73,24.12-12.38,0-20.09-10.18-20.09-24.03,0-13.12,7.24-24.03,20.54-24.03,12.2,0,20.27,9.54,20.27,23.94ZM478.42,1087.23c0,10.92,5.87,19.72,15.59,19.72s15.5-8.16,15.5-19.72c0-10.82-5.5-19.72-15.69-19.72s-15.41,8.71-15.41,19.72Z"/>
    <path class="st2" d="M526.66,1097.51c1.56,5.96,5.78,9.54,13.02,9.54,8.16,0,11.46-3.76,11.46-8.9s-2.2-7.8-12.48-10.27c-11.83-2.84-14.77-6.42-14.77-12.47s4.77-12.2,15.14-12.2,15.32,6.33,16.05,12.84h-4.59c-.82-3.85-3.85-8.62-11.65-8.62s-10.27,3.94-10.27,7.61c0,4.22,2.2,6.33,11.28,8.53,12.93,3.12,16.14,7.34,16.14,14.22,0,8.35-6.79,13.48-16.42,13.48-10.46,0-16.33-5.5-17.61-13.76h4.68Z"/>
    <path class="st2" d="M568.39,1087.78c.09,11.83,6.05,19.17,14.86,19.17s11.56-4.86,13.21-8.62h4.68c-1.93,6.05-6.79,12.93-18.07,12.93-13.94,0-19.35-12.02-19.35-23.66,0-13.12,6.51-24.4,19.9-24.4,14.13,0,18.62,12.2,18.62,20.82,0,1.29,0,2.57-.09,3.76h-33.75ZM597.47,1083.75c-.09-9.08-5.05-16.24-14.04-16.24-9.45,0-13.76,6.61-14.77,16.24h28.8Z"/>
  </g>
  <path class="st5" d="M357.64,813.54l74.01,74.01h0c20.44-20.44,20.44-53.57,0-74.01h0c-20.44-20.44-53.57-20.44-74.01,0h0Z"/>
  <path class="st5" d="M456.32,1010.9l-74.01-74.01h0c-20.44,20.44-20.44,53.57,0,74.01h0c20.44,20.44,53.57,20.44,74.01,0h0Z"/>
  <path class="st5" d="M357.64,912.22l98.68,98.68c27.25-27.25,27.25-71.43,0-98.68l-98.68-98.68c-27.25,27.25-27.25,71.43,0,98.68Z"/>
  <g>
    <path class="st9" d="M1144.77,409.97c1.56,5.96,5.78,9.54,13.02,9.54,8.16,0,11.46-3.76,11.46-8.9s-2.2-7.8-12.48-10.27c-11.83-2.84-14.77-6.42-14.77-12.47s4.77-12.2,15.14-12.2,15.32,6.33,16.05,12.84h-4.59c-.82-3.85-3.85-8.62-11.65-8.62s-10.27,3.94-10.27,7.61c0,4.22,2.2,6.33,11.28,8.53,12.93,3.12,16.14,7.34,16.14,14.22,0,8.35-6.79,13.48-16.42,13.48-10.46,0-16.33-5.5-17.61-13.76h4.68Z"/>
    <path class="st9" d="M1185.49,355.03h4.59v8.9h-4.59v-8.9ZM1185.49,376.77h4.59v45.86h-4.59v-45.86Z"/>
    <path class="st9" d="M1205.11,388.6c0-3.94,0-8.26-.09-11.83h4.49c.09,1.56.28,5.5.18,8.16,1.93-4.59,6.15-9.26,13.76-9.26,6.42,0,11.46,3.21,13.3,9.08,2.29-4.77,6.88-9.08,14.95-9.08,7.06,0,14.4,4.04,14.4,16.79v30.18h-4.59v-29.63c0-6.15-2.2-12.84-10.73-12.84s-12.93,7.15-12.93,16.05v26.42h-4.5v-29.53c0-6.7-2.02-12.93-10.46-12.93-8.9,0-13.21,7.89-13.21,17.24v25.22h-4.59v-34.03Z"/>
    <path class="st9" d="M1281.15,355.03h4.59v29.44c2.2-4.59,6.7-8.81,15.68-8.81,10.83,0,18.81,8.9,18.81,23.02s-7.15,25.04-20,25.04c-7.71,0-12.11-3.12-14.49-8.35,0,2.94-.09,5.96-.19,7.25h-4.49c.09-5.23.09-10.46.09-15.69v-51.92ZM1315.36,398.78c0-11.46-5.69-18.8-14.4-18.8-11.47,0-15.5,7.8-15.5,19.81,0,10.82,3.58,19.63,14.95,19.63,9.26,0,14.95-7.71,14.95-20.64Z"/>
    <path class="st9" d="M1331.96,355.03h4.59v8.9h-4.59v-8.9ZM1331.96,376.77h4.59v45.86h-4.59v-45.86Z"/>
    <path class="st9" d="M1388.73,399.6c0,12.75-7.06,24.12-20.73,24.12-12.38,0-20.09-10.18-20.09-24.03,0-13.12,7.24-24.03,20.54-24.03,12.2,0,20.27,9.54,20.27,23.94ZM1352.78,399.7c0,10.92,5.87,19.72,15.59,19.72s15.5-8.16,15.5-19.72c0-10.82-5.5-19.72-15.69-19.72s-15.41,8.71-15.41,19.72Z"/>
    <path class="st9" d="M1401.02,409.97c1.56,5.96,5.78,9.54,13.02,9.54,8.16,0,11.46-3.76,11.46-8.9s-2.2-7.8-12.48-10.27c-11.83-2.84-14.77-6.42-14.77-12.47s4.77-12.2,15.14-12.2,15.32,6.33,16.05,12.84h-4.59c-.82-3.85-3.85-8.62-11.65-8.62s-10.27,3.94-10.27,7.61c0,4.22,2.2,6.33,11.28,8.53,12.93,3.12,16.14,7.34,16.14,14.22,0,8.35-6.79,13.48-16.42,13.48-10.46,0-16.33-5.5-17.61-13.76h4.68Z"/>
    <path class="st9" d="M1442.75,400.25c.09,11.83,6.05,19.17,14.86,19.17s11.56-4.86,13.21-8.62h4.68c-1.93,6.05-6.79,12.93-18.07,12.93-13.94,0-19.35-12.02-19.35-23.66,0-13.12,6.51-24.4,19.9-24.4,14.13,0,18.62,12.2,18.62,20.82,0,1.29,0,2.57-.09,3.76h-33.75ZM1471.83,396.21c-.09-9.08-5.05-16.24-14.04-16.24-9.45,0-13.76,6.61-14.77,16.24h28.8Z"/>
  </g>
  <path class="st7" d="M1232,126.01l74.01,74.01h0c20.44-20.44,20.44-53.57,0-74.01h0c-20.44-20.44-53.57-20.44-74.01,0h0Z"/>
  <path class="st7" d="M1330.68,323.36l-74.01-74.01h0c-20.44,20.44-20.44,53.57,0,74.01h0c20.44,20.44,53.57,20.44,74.01,0h0Z"/>
  <path class="st7" d="M1232,224.68l98.68,98.68c27.25-27.25,27.25-71.43,0-98.68l-98.68-98.68c-27.25,27.25-27.25,71.43,0,98.68Z"/>
</svg>